<svg xmlns="http://www.w3.org/2000/svg" width="600" height="600" viewBox="0 0 600 600" version="1.1"><path d="M 204 216 L 204 241 304 241 L 404 241 404 216 L 404 191 304 191 L 204 191 204 216 M 279 329.500 L 279 404 303.500 404 L 328 404 328 329.500 L 328 255 303.500 255 L 279 255 279 329.500 M 204 338 L 204 413 229 413 L 254 413 254 338 L 254 263 229 263 L 204 263 204 338 M 353 338 L 353 413 378 413 L 403 413 403 338 L 403 263 378 263 L 353 263 353 338" stroke="none" fill="#f4f4f4" fill-rule="evenodd"/><path d="M 0 300.002 L 0 600.003 300.250 599.752 L 600.500 599.500 600.752 299.750 L 601.003 0 300.502 0 L 0 0 0 300.002 M 0.493 300.500 C 0.493 465.500, 0.609 532.851, 0.750 450.169 C 0.891 367.487, 0.891 232.487, 0.750 150.169 C 0.609 67.851, 0.493 135.500, 0.493 300.500 M 204 216 L 204 241 304 241 L 404 241 404 216 L 404 191 304 191 L 204 191 204 216 M 279 329.500 L 279 404 303.500 404 L 328 404 328 329.500 L 328 255 303.500 255 L 279 255 279 329.500 M 204 338 L 204 413 229 413 L 254 413 254 338 L 254 263 229 263 L 204 263 204 338 M 353 338 L 353 413 378 413 L 403 413 403 338 L 403 263 378 263 L 353 263 353 338" stroke="none" fill="#74bc64" fill-rule="evenodd"/></svg>